<svg xmlns="http://www.w3.org/2000/svg" width="760" height="440" viewBox="0 0 760 440">
<rect x="0" y="0" width="760" height="440" fill="#ffffff"/>
<text x="70" y="30" fill="#1b1f24" font-size="18" font-weight="700" font-family="system-ui,sans-serif">FPS @ load • Android • DN2103 • Release</text>
<line x1="70" y1="376" x2="736" y2="376" stroke="#e3e6ea" stroke-width="1"/>
<text x="60" y="380" fill="#7a828c" font-size="12" text-anchor="end" font-family="system-ui,sans-serif">0</text>
<line x1="70" y1="311.2" x2="736" y2="311.2" stroke="#e3e6ea" stroke-width="1"/>
<text x="60" y="315.2" fill="#7a828c" font-size="12" text-anchor="end" font-family="system-ui,sans-serif">13</text>
<line x1="70" y1="246.4" x2="736" y2="246.4" stroke="#e3e6ea" stroke-width="1"/>
<text x="60" y="250.4" fill="#7a828c" font-size="12" text-anchor="end" font-family="system-ui,sans-serif">26</text>
<line x1="70" y1="181.6" x2="736" y2="181.6" stroke="#e3e6ea" stroke-width="1"/>
<text x="60" y="185.6" fill="#7a828c" font-size="12" text-anchor="end" font-family="system-ui,sans-serif">39</text>
<line x1="70" y1="116.80000000000001" x2="736" y2="116.80000000000001" stroke="#e3e6ea" stroke-width="1"/>
<text x="60" y="120.80000000000001" fill="#7a828c" font-size="12" text-anchor="end" font-family="system-ui,sans-serif">52</text>
<line x1="70" y1="52" x2="736" y2="52" stroke="#e3e6ea" stroke-width="1"/>
<text x="60" y="56" fill="#7a828c" font-size="12" text-anchor="end" font-family="system-ui,sans-serif">65</text>
<text x="70" y="398" fill="#7a828c" font-size="12" text-anchor="middle" font-family="system-ui,sans-serif">68</text>
<text x="105.05263157894737" y="398" fill="#7a828c" font-size="12" text-anchor="middle" font-family="system-ui,sans-serif">96</text>
<text x="140.10526315789474" y="398" fill="#7a828c" font-size="12" text-anchor="middle" font-family="system-ui,sans-serif">124</text>
<text x="175.15789473684208" y="398" fill="#7a828c" font-size="12" text-anchor="middle" font-family="system-ui,sans-serif">152</text>
<text x="210.21052631578948" y="398" fill="#7a828c" font-size="12" text-anchor="middle" font-family="system-ui,sans-serif">180</text>
<text x="245.26315789473682" y="398" fill="#7a828c" font-size="12" text-anchor="middle" font-family="system-ui,sans-serif">208</text>
<text x="280.31578947368416" y="398" fill="#7a828c" font-size="12" text-anchor="middle" font-family="system-ui,sans-serif">236</text>
<text x="315.36842105263156" y="398" fill="#7a828c" font-size="12" text-anchor="middle" font-family="system-ui,sans-serif">264</text>
<text x="350.42105263157896" y="398" fill="#7a828c" font-size="12" text-anchor="middle" font-family="system-ui,sans-serif">292</text>
<text x="385.4736842105263" y="398" fill="#7a828c" font-size="12" text-anchor="middle" font-family="system-ui,sans-serif">320</text>
<text x="420.52631578947364" y="398" fill="#7a828c" font-size="12" text-anchor="middle" font-family="system-ui,sans-serif">348</text>
<text x="455.57894736842104" y="398" fill="#7a828c" font-size="12" text-anchor="middle" font-family="system-ui,sans-serif">376</text>
<text x="490.6315789473684" y="398" fill="#7a828c" font-size="12" text-anchor="middle" font-family="system-ui,sans-serif">404</text>
<text x="525.6842105263158" y="398" fill="#7a828c" font-size="12" text-anchor="middle" font-family="system-ui,sans-serif">432</text>
<text x="560.7368421052631" y="398" fill="#7a828c" font-size="12" text-anchor="middle" font-family="system-ui,sans-serif">460</text>
<text x="595.7894736842105" y="398" fill="#7a828c" font-size="12" text-anchor="middle" font-family="system-ui,sans-serif">488</text>
<text x="630.8421052631579" y="398" fill="#7a828c" font-size="12" text-anchor="middle" font-family="system-ui,sans-serif">516</text>
<text x="665.8947368421053" y="398" fill="#7a828c" font-size="12" text-anchor="middle" font-family="system-ui,sans-serif">544</text>
<text x="700.9473684210526" y="398" fill="#7a828c" font-size="12" text-anchor="middle" font-family="system-ui,sans-serif">572</text>
<text x="736" y="398" fill="#7a828c" font-size="12" text-anchor="middle" font-family="system-ui,sans-serif">600</text>
<text x="403" y="424" fill="#5c6470" font-size="13" text-anchor="middle" font-family="system-ui,sans-serif">Text rows rendered</text>
<text x="18" y="214" fill="#5c6470" font-size="13" text-anchor="middle" font-family="system-ui,sans-serif" transform="rotate(-90 18 214)">avg FPS</text>
<polyline points="70.0,-56.2 105.1,10.6 140.1,76.4 175.2,159.7 210.2,188.1 245.3,177.6 280.3,211.5 315.4,224.0 350.4,243.9 385.5,252.4 420.5,260.4 455.6,264.8 490.6,273.8 525.7,284.8 560.7,302.7 595.8,295.2 630.8,304.7 665.9,302.2 700.9,309.2 736.0,314.7" fill="none" stroke="#f6465d" stroke-width="2.5"/><circle cx="70.0" cy="-56.2" r="3.5" fill="#f6465d"/><circle cx="105.1" cy="10.6" r="3.5" fill="#f6465d"/><circle cx="140.1" cy="76.4" r="3.5" fill="#f6465d"/><circle cx="175.2" cy="159.7" r="3.5" fill="#f6465d"/><circle cx="210.2" cy="188.1" r="3.5" fill="#f6465d"/><circle cx="245.3" cy="177.6" r="3.5" fill="#f6465d"/><circle cx="280.3" cy="211.5" r="3.5" fill="#f6465d"/><circle cx="315.4" cy="224.0" r="3.5" fill="#f6465d"/><circle cx="350.4" cy="243.9" r="3.5" fill="#f6465d"/><circle cx="385.5" cy="252.4" r="3.5" fill="#f6465d"/><circle cx="420.5" cy="260.4" r="3.5" fill="#f6465d"/><circle cx="455.6" cy="264.8" r="3.5" fill="#f6465d"/><circle cx="490.6" cy="273.8" r="3.5" fill="#f6465d"/><circle cx="525.7" cy="284.8" r="3.5" fill="#f6465d"/><circle cx="560.7" cy="302.7" r="3.5" fill="#f6465d"/><circle cx="595.8" cy="295.2" r="3.5" fill="#f6465d"/><circle cx="630.8" cy="304.7" r="3.5" fill="#f6465d"/><circle cx="665.9" cy="302.2" r="3.5" fill="#f6465d"/><circle cx="700.9" cy="309.2" r="3.5" fill="#f6465d"/><circle cx="736.0" cy="314.7" r="3.5" fill="#f6465d"/>
<polyline points="70.0,-27.5 105.1,60.1 140.1,87.8 175.2,146.2 210.2,185.2 245.3,176.6 280.3,186.5 315.4,210.8 350.4,212.4 385.5,212.1 420.5,235.3 455.6,276.9 490.6,276.2 525.7,275.9 560.7,288.2 595.8,300.4 630.8,305.4 665.9,305.7 700.9,300.6 736.0,306.3" fill="none" stroke="#f0b90b" stroke-width="2.5"/><circle cx="70.0" cy="-27.5" r="3.5" fill="#f0b90b"/><circle cx="105.1" cy="60.1" r="3.5" fill="#f0b90b"/><circle cx="140.1" cy="87.8" r="3.5" fill="#f0b90b"/><circle cx="175.2" cy="146.2" r="3.5" fill="#f0b90b"/><circle cx="210.2" cy="185.2" r="3.5" fill="#f0b90b"/><circle cx="245.3" cy="176.6" r="3.5" fill="#f0b90b"/><circle cx="280.3" cy="186.5" r="3.5" fill="#f0b90b"/><circle cx="315.4" cy="210.8" r="3.5" fill="#f0b90b"/><circle cx="350.4" cy="212.4" r="3.5" fill="#f0b90b"/><circle cx="385.5" cy="212.1" r="3.5" fill="#f0b90b"/><circle cx="420.5" cy="235.3" r="3.5" fill="#f0b90b"/><circle cx="455.6" cy="276.9" r="3.5" fill="#f0b90b"/><circle cx="490.6" cy="276.2" r="3.5" fill="#f0b90b"/><circle cx="525.7" cy="275.9" r="3.5" fill="#f0b90b"/><circle cx="560.7" cy="288.2" r="3.5" fill="#f0b90b"/><circle cx="595.8" cy="300.4" r="3.5" fill="#f0b90b"/><circle cx="630.8" cy="305.4" r="3.5" fill="#f0b90b"/><circle cx="665.9" cy="305.7" r="3.5" fill="#f0b90b"/><circle cx="700.9" cy="300.6" r="3.5" fill="#f0b90b"/><circle cx="736.0" cy="306.3" r="3.5" fill="#f0b90b"/>
<polyline points="70.0,-52.2 105.1,-48.2 140.1,69.9 175.2,122.3 210.2,110.3 245.3,136.7 280.3,149.7 315.4,157.2 350.4,158.7 385.5,178.1 420.5,193.6 455.6,201.5 490.6,237.9 525.7,242.4 560.7,247.9 595.8,261.9 630.8,258.4 665.9,263.8 700.9,262.8 736.0,276.8" fill="none" stroke="#0ecb81" stroke-width="2.5"/><circle cx="70.0" cy="-52.2" r="3.5" fill="#0ecb81"/><circle cx="105.1" cy="-48.2" r="3.5" fill="#0ecb81"/><circle cx="140.1" cy="69.9" r="3.5" fill="#0ecb81"/><circle cx="175.2" cy="122.3" r="3.5" fill="#0ecb81"/><circle cx="210.2" cy="110.3" r="3.5" fill="#0ecb81"/><circle cx="245.3" cy="136.7" r="3.5" fill="#0ecb81"/><circle cx="280.3" cy="149.7" r="3.5" fill="#0ecb81"/><circle cx="315.4" cy="157.2" r="3.5" fill="#0ecb81"/><circle cx="350.4" cy="158.7" r="3.5" fill="#0ecb81"/><circle cx="385.5" cy="178.1" r="3.5" fill="#0ecb81"/><circle cx="420.5" cy="193.6" r="3.5" fill="#0ecb81"/><circle cx="455.6" cy="201.5" r="3.5" fill="#0ecb81"/><circle cx="490.6" cy="237.9" r="3.5" fill="#0ecb81"/><circle cx="525.7" cy="242.4" r="3.5" fill="#0ecb81"/><circle cx="560.7" cy="247.9" r="3.5" fill="#0ecb81"/><circle cx="595.8" cy="261.9" r="3.5" fill="#0ecb81"/><circle cx="630.8" cy="258.4" r="3.5" fill="#0ecb81"/><circle cx="665.9" cy="263.8" r="3.5" fill="#0ecb81"/><circle cx="700.9" cy="262.8" r="3.5" fill="#0ecb81"/><circle cx="736.0" cy="276.8" r="3.5" fill="#0ecb81"/>
<rect x="586" y="51" width="12" height="12" rx="2" fill="#f6465d"/><text x="604" y="61" fill="#1b1f24" font-size="12" font-family="system-ui,sans-serif">Baseline</text>
<rect x="586" y="71" width="12" height="12" rx="2" fill="#f0b90b"/><text x="604" y="81" fill="#1b1f24" font-size="12" font-family="system-ui,sans-serif">Core-optimized</text>
<rect x="586" y="91" width="12" height="12" rx="2" fill="#0ecb81"/><text x="604" y="101" fill="#1b1f24" font-size="12" font-family="system-ui,sans-serif">Boost</text>
</svg>
