<svg xmlns="http://www.w3.org/2000/svg" width="760" height="440" viewBox="0 0 760 440">
<rect x="0" y="0" width="760" height="440" fill="#0b0e11"/>
<text x="70" y="30" fill="#eaecef" font-size="18" font-weight="700" font-family="system-ui,sans-serif">FPS @ load • Android • DN2103 • Release</text>
<line x1="70" y1="376" x2="736" y2="376" stroke="#222831" stroke-width="1"/>
<text x="60" y="380" fill="#6c7480" font-size="12" text-anchor="end" font-family="system-ui,sans-serif">0</text>
<line x1="70" y1="311.2" x2="736" y2="311.2" stroke="#222831" stroke-width="1"/>
<text x="60" y="315.2" fill="#6c7480" font-size="12" text-anchor="end" font-family="system-ui,sans-serif">13</text>
<line x1="70" y1="246.4" x2="736" y2="246.4" stroke="#222831" stroke-width="1"/>
<text x="60" y="250.4" fill="#6c7480" font-size="12" text-anchor="end" font-family="system-ui,sans-serif">26</text>
<line x1="70" y1="181.6" x2="736" y2="181.6" stroke="#222831" stroke-width="1"/>
<text x="60" y="185.6" fill="#6c7480" font-size="12" text-anchor="end" font-family="system-ui,sans-serif">39</text>
<line x1="70" y1="116.80000000000001" x2="736" y2="116.80000000000001" stroke="#222831" stroke-width="1"/>
<text x="60" y="120.80000000000001" fill="#6c7480" font-size="12" text-anchor="end" font-family="system-ui,sans-serif">52</text>
<line x1="70" y1="52" x2="736" y2="52" stroke="#222831" stroke-width="1"/>
<text x="60" y="56" fill="#6c7480" font-size="12" text-anchor="end" font-family="system-ui,sans-serif">65</text>
<text x="70" y="398" fill="#6c7480" font-size="12" text-anchor="middle" font-family="system-ui,sans-serif">68</text>
<text x="105.05263157894737" y="398" fill="#6c7480" font-size="12" text-anchor="middle" font-family="system-ui,sans-serif">96</text>
<text x="140.10526315789474" y="398" fill="#6c7480" font-size="12" text-anchor="middle" font-family="system-ui,sans-serif">124</text>
<text x="175.15789473684208" y="398" fill="#6c7480" font-size="12" text-anchor="middle" font-family="system-ui,sans-serif">152</text>
<text x="210.21052631578948" y="398" fill="#6c7480" font-size="12" text-anchor="middle" font-family="system-ui,sans-serif">180</text>
<text x="245.26315789473682" y="398" fill="#6c7480" font-size="12" text-anchor="middle" font-family="system-ui,sans-serif">208</text>
<text x="280.31578947368416" y="398" fill="#6c7480" font-size="12" text-anchor="middle" font-family="system-ui,sans-serif">236</text>
<text x="315.36842105263156" y="398" fill="#6c7480" font-size="12" text-anchor="middle" font-family="system-ui,sans-serif">264</text>
<text x="350.42105263157896" y="398" fill="#6c7480" font-size="12" text-anchor="middle" font-family="system-ui,sans-serif">292</text>
<text x="385.4736842105263" y="398" fill="#6c7480" font-size="12" text-anchor="middle" font-family="system-ui,sans-serif">320</text>
<text x="420.52631578947364" y="398" fill="#6c7480" font-size="12" text-anchor="middle" font-family="system-ui,sans-serif">348</text>
<text x="455.57894736842104" y="398" fill="#6c7480" font-size="12" text-anchor="middle" font-family="system-ui,sans-serif">376</text>
<text x="490.6315789473684" y="398" fill="#6c7480" font-size="12" text-anchor="middle" font-family="system-ui,sans-serif">404</text>
<text x="525.6842105263158" y="398" fill="#6c7480" font-size="12" text-anchor="middle" font-family="system-ui,sans-serif">432</text>
<text x="560.7368421052631" y="398" fill="#6c7480" font-size="12" text-anchor="middle" font-family="system-ui,sans-serif">460</text>
<text x="595.7894736842105" y="398" fill="#6c7480" font-size="12" text-anchor="middle" font-family="system-ui,sans-serif">488</text>
<text x="630.8421052631579" y="398" fill="#6c7480" font-size="12" text-anchor="middle" font-family="system-ui,sans-serif">516</text>
<text x="665.8947368421053" y="398" fill="#6c7480" font-size="12" text-anchor="middle" font-family="system-ui,sans-serif">544</text>
<text x="700.9473684210526" y="398" fill="#6c7480" font-size="12" text-anchor="middle" font-family="system-ui,sans-serif">572</text>
<text x="736" y="398" fill="#6c7480" font-size="12" text-anchor="middle" font-family="system-ui,sans-serif">600</text>
<text x="403" y="424" fill="#9aa3ad" font-size="13" text-anchor="middle" font-family="system-ui,sans-serif">Text rows rendered</text>
<text x="18" y="214" fill="#9aa3ad" font-size="13" text-anchor="middle" font-family="system-ui,sans-serif" transform="rotate(-90 18 214)">avg FPS</text>
<line x1="70.0" y1="79.4" x2="70.0" y2="79.4" stroke="#f6465d" stroke-width="1.5" opacity="0.45"/><line x1="67.0" y1="79.4" x2="73.0" y2="79.4" stroke="#f6465d" stroke-width="1.5" opacity="0.45"/><line x1="67.0" y1="79.4" x2="73.0" y2="79.4" stroke="#f6465d" stroke-width="1.5" opacity="0.45"/><line x1="105.1" y1="79.4" x2="105.1" y2="79.4" stroke="#f6465d" stroke-width="1.5" opacity="0.45"/><line x1="102.1" y1="79.4" x2="108.1" y2="79.4" stroke="#f6465d" stroke-width="1.5" opacity="0.45"/><line x1="102.1" y1="79.4" x2="108.1" y2="79.4" stroke="#f6465d" stroke-width="1.5" opacity="0.45"/><line x1="140.1" y1="79.4" x2="140.1" y2="79.4" stroke="#f6465d" stroke-width="1.5" opacity="0.45"/><line x1="137.1" y1="79.4" x2="143.1" y2="79.4" stroke="#f6465d" stroke-width="1.5" opacity="0.45"/><line x1="137.1" y1="79.4" x2="143.1" y2="79.4" stroke="#f6465d" stroke-width="1.5" opacity="0.45"/><line x1="175.2" y1="79.4" x2="175.2" y2="79.4" stroke="#f6465d" stroke-width="1.5" opacity="0.45"/><line x1="172.2" y1="79.4" x2="178.2" y2="79.4" stroke="#f6465d" stroke-width="1.5" opacity="0.45"/><line x1="172.2" y1="79.4" x2="178.2" y2="79.4" stroke="#f6465d" stroke-width="1.5" opacity="0.45"/><line x1="210.2" y1="79.9" x2="210.2" y2="79.9" stroke="#f6465d" stroke-width="1.5" opacity="0.45"/><line x1="207.2" y1="79.9" x2="213.2" y2="79.9" stroke="#f6465d" stroke-width="1.5" opacity="0.45"/><line x1="207.2" y1="79.9" x2="213.2" y2="79.9" stroke="#f6465d" stroke-width="1.5" opacity="0.45"/><line x1="245.3" y1="97.4" x2="245.3" y2="91.4" stroke="#f6465d" stroke-width="1.5" opacity="0.45"/><line x1="242.3" y1="91.4" x2="248.3" y2="91.4" stroke="#f6465d" stroke-width="1.5" opacity="0.45"/><line x1="242.3" y1="97.4" x2="248.3" y2="97.4" stroke="#f6465d" stroke-width="1.5" opacity="0.45"/><line x1="280.3" y1="246.4" x2="280.3" y2="201.5" stroke="#f6465d" stroke-width="1.5" opacity="0.45"/><line x1="277.3" y1="201.5" x2="283.3" y2="201.5" stroke="#f6465d" stroke-width="1.5" opacity="0.45"/><line x1="277.3" y1="246.4" x2="283.3" y2="246.4" stroke="#f6465d" stroke-width="1.5" opacity="0.45"/><line x1="315.4" y1="211.4" x2="315.4" y2="185.7" stroke="#f6465d" stroke-width="1.5" opacity="0.45"/><line x1="312.4" y1="185.7" x2="318.4" y2="185.7" stroke="#f6465d" stroke-width="1.5" opacity="0.45"/><line x1="312.4" y1="211.4" x2="318.4" y2="211.4" stroke="#f6465d" stroke-width="1.5" opacity="0.45"/><line x1="350.4" y1="223.8" x2="350.4" y2="204.2" stroke="#f6465d" stroke-width="1.5" opacity="0.45"/><line x1="347.4" y1="204.2" x2="353.4" y2="204.2" stroke="#f6465d" stroke-width="1.5" opacity="0.45"/><line x1="347.4" y1="223.8" x2="353.4" y2="223.8" stroke="#f6465d" stroke-width="1.5" opacity="0.45"/><line x1="385.5" y1="246.6" x2="385.5" y2="223.2" stroke="#f6465d" stroke-width="1.5" opacity="0.45"/><line x1="382.5" y1="223.2" x2="388.5" y2="223.2" stroke="#f6465d" stroke-width="1.5" opacity="0.45"/><line x1="382.5" y1="246.6" x2="388.5" y2="246.6" stroke="#f6465d" stroke-width="1.5" opacity="0.45"/><line x1="420.5" y1="237.7" x2="420.5" y2="229.2" stroke="#f6465d" stroke-width="1.5" opacity="0.45"/><line x1="417.5" y1="229.2" x2="423.5" y2="229.2" stroke="#f6465d" stroke-width="1.5" opacity="0.45"/><line x1="417.5" y1="237.7" x2="423.5" y2="237.7" stroke="#f6465d" stroke-width="1.5" opacity="0.45"/><line x1="455.6" y1="263.2" x2="455.6" y2="239.5" stroke="#f6465d" stroke-width="1.5" opacity="0.45"/><line x1="452.6" y1="239.5" x2="458.6" y2="239.5" stroke="#f6465d" stroke-width="1.5" opacity="0.45"/><line x1="452.6" y1="263.2" x2="458.6" y2="263.2" stroke="#f6465d" stroke-width="1.5" opacity="0.45"/><line x1="490.6" y1="263.5" x2="490.6" y2="260.2" stroke="#f6465d" stroke-width="1.5" opacity="0.45"/><line x1="487.6" y1="260.2" x2="493.6" y2="260.2" stroke="#f6465d" stroke-width="1.5" opacity="0.45"/><line x1="487.6" y1="263.5" x2="493.6" y2="263.5" stroke="#f6465d" stroke-width="1.5" opacity="0.45"/><line x1="525.7" y1="274.3" x2="525.7" y2="270.3" stroke="#f6465d" stroke-width="1.5" opacity="0.45"/><line x1="522.7" y1="270.3" x2="528.7" y2="270.3" stroke="#f6465d" stroke-width="1.5" opacity="0.45"/><line x1="522.7" y1="274.3" x2="528.7" y2="274.3" stroke="#f6465d" stroke-width="1.5" opacity="0.45"/><line x1="560.7" y1="278.7" x2="560.7" y2="276.9" stroke="#f6465d" stroke-width="1.5" opacity="0.45"/><line x1="557.7" y1="276.9" x2="563.7" y2="276.9" stroke="#f6465d" stroke-width="1.5" opacity="0.45"/><line x1="557.7" y1="278.7" x2="563.7" y2="278.7" stroke="#f6465d" stroke-width="1.5" opacity="0.45"/><line x1="595.8" y1="279.8" x2="595.8" y2="275.8" stroke="#f6465d" stroke-width="1.5" opacity="0.45"/><line x1="592.8" y1="275.8" x2="598.8" y2="275.8" stroke="#f6465d" stroke-width="1.5" opacity="0.45"/><line x1="592.8" y1="279.8" x2="598.8" y2="279.8" stroke="#f6465d" stroke-width="1.5" opacity="0.45"/><line x1="630.8" y1="289.4" x2="630.8" y2="286.2" stroke="#f6465d" stroke-width="1.5" opacity="0.45"/><line x1="627.8" y1="286.2" x2="633.8" y2="286.2" stroke="#f6465d" stroke-width="1.5" opacity="0.45"/><line x1="627.8" y1="289.4" x2="633.8" y2="289.4" stroke="#f6465d" stroke-width="1.5" opacity="0.45"/><line x1="665.9" y1="297.6" x2="665.9" y2="293.9" stroke="#f6465d" stroke-width="1.5" opacity="0.45"/><line x1="662.9" y1="293.9" x2="668.9" y2="293.9" stroke="#f6465d" stroke-width="1.5" opacity="0.45"/><line x1="662.9" y1="297.6" x2="668.9" y2="297.6" stroke="#f6465d" stroke-width="1.5" opacity="0.45"/><line x1="700.9" y1="306.0" x2="700.9" y2="301.5" stroke="#f6465d" stroke-width="1.5" opacity="0.45"/><line x1="697.9" y1="301.5" x2="703.9" y2="301.5" stroke="#f6465d" stroke-width="1.5" opacity="0.45"/><line x1="697.9" y1="306.0" x2="703.9" y2="306.0" stroke="#f6465d" stroke-width="1.5" opacity="0.45"/><line x1="736.0" y1="307.3" x2="736.0" y2="304.1" stroke="#f6465d" stroke-width="1.5" opacity="0.45"/><line x1="733.0" y1="304.1" x2="739.0" y2="304.1" stroke="#f6465d" stroke-width="1.5" opacity="0.45"/><line x1="733.0" y1="307.3" x2="739.0" y2="307.3" stroke="#f6465d" stroke-width="1.5" opacity="0.45"/><polyline points="70.0,79.4 105.1,79.4 140.1,79.4 175.2,79.4 210.2,79.9 245.3,94.4 280.3,224.0 315.4,198.5 350.4,214.0 385.5,234.9 420.5,233.4 455.6,251.4 490.6,261.9 525.7,272.3 560.7,277.8 595.8,277.8 630.8,287.8 665.9,295.7 700.9,303.7 736.0,305.7" fill="none" stroke="#f6465d" stroke-width="2.5"/><circle cx="70.0" cy="79.4" r="3.5" fill="#f6465d"/><circle cx="105.1" cy="79.4" r="3.5" fill="#f6465d"/><circle cx="140.1" cy="79.4" r="3.5" fill="#f6465d"/><circle cx="175.2" cy="79.4" r="3.5" fill="#f6465d"/><circle cx="210.2" cy="79.9" r="3.5" fill="#f6465d"/><circle cx="245.3" cy="94.4" r="3.5" fill="#f6465d"/><circle cx="280.3" cy="224.0" r="3.5" fill="#f6465d"/><circle cx="315.4" cy="198.5" r="3.5" fill="#f6465d"/><circle cx="350.4" cy="214.0" r="3.5" fill="#f6465d"/><circle cx="385.5" cy="234.9" r="3.5" fill="#f6465d"/><circle cx="420.5" cy="233.4" r="3.5" fill="#f6465d"/><circle cx="455.6" cy="251.4" r="3.5" fill="#f6465d"/><circle cx="490.6" cy="261.9" r="3.5" fill="#f6465d"/><circle cx="525.7" cy="272.3" r="3.5" fill="#f6465d"/><circle cx="560.7" cy="277.8" r="3.5" fill="#f6465d"/><circle cx="595.8" cy="277.8" r="3.5" fill="#f6465d"/><circle cx="630.8" cy="287.8" r="3.5" fill="#f6465d"/><circle cx="665.9" cy="295.7" r="3.5" fill="#f6465d"/><circle cx="700.9" cy="303.7" r="3.5" fill="#f6465d"/><circle cx="736.0" cy="305.7" r="3.5" fill="#f6465d"/>
<line x1="70.0" y1="79.4" x2="70.0" y2="79.4" stroke="#0ecb81" stroke-width="1.5" opacity="0.45"/><line x1="67.0" y1="79.4" x2="73.0" y2="79.4" stroke="#0ecb81" stroke-width="1.5" opacity="0.45"/><line x1="67.0" y1="79.4" x2="73.0" y2="79.4" stroke="#0ecb81" stroke-width="1.5" opacity="0.45"/><line x1="105.1" y1="79.4" x2="105.1" y2="79.4" stroke="#0ecb81" stroke-width="1.5" opacity="0.45"/><line x1="102.1" y1="79.4" x2="108.1" y2="79.4" stroke="#0ecb81" stroke-width="1.5" opacity="0.45"/><line x1="102.1" y1="79.4" x2="108.1" y2="79.4" stroke="#0ecb81" stroke-width="1.5" opacity="0.45"/><line x1="140.1" y1="81.4" x2="140.1" y2="81.4" stroke="#0ecb81" stroke-width="1.5" opacity="0.45"/><line x1="137.1" y1="81.4" x2="143.1" y2="81.4" stroke="#0ecb81" stroke-width="1.5" opacity="0.45"/><line x1="137.1" y1="81.4" x2="143.1" y2="81.4" stroke="#0ecb81" stroke-width="1.5" opacity="0.45"/><line x1="175.2" y1="82.4" x2="175.2" y2="82.4" stroke="#0ecb81" stroke-width="1.5" opacity="0.45"/><line x1="172.2" y1="82.4" x2="178.2" y2="82.4" stroke="#0ecb81" stroke-width="1.5" opacity="0.45"/><line x1="172.2" y1="82.4" x2="178.2" y2="82.4" stroke="#0ecb81" stroke-width="1.5" opacity="0.45"/><line x1="210.2" y1="80.4" x2="210.2" y2="80.4" stroke="#0ecb81" stroke-width="1.5" opacity="0.45"/><line x1="207.2" y1="80.4" x2="213.2" y2="80.4" stroke="#0ecb81" stroke-width="1.5" opacity="0.45"/><line x1="207.2" y1="80.4" x2="213.2" y2="80.4" stroke="#0ecb81" stroke-width="1.5" opacity="0.45"/><line x1="245.3" y1="83.4" x2="245.3" y2="77.4" stroke="#0ecb81" stroke-width="1.5" opacity="0.45"/><line x1="242.3" y1="77.4" x2="248.3" y2="77.4" stroke="#0ecb81" stroke-width="1.5" opacity="0.45"/><line x1="242.3" y1="83.4" x2="248.3" y2="83.4" stroke="#0ecb81" stroke-width="1.5" opacity="0.45"/><line x1="280.3" y1="96.2" x2="280.3" y2="68.6" stroke="#0ecb81" stroke-width="1.5" opacity="0.45"/><line x1="277.3" y1="68.6" x2="283.3" y2="68.6" stroke="#0ecb81" stroke-width="1.5" opacity="0.45"/><line x1="277.3" y1="96.2" x2="283.3" y2="96.2" stroke="#0ecb81" stroke-width="1.5" opacity="0.45"/><line x1="315.4" y1="108.1" x2="315.4" y2="78.7" stroke="#0ecb81" stroke-width="1.5" opacity="0.45"/><line x1="312.4" y1="78.7" x2="318.4" y2="78.7" stroke="#0ecb81" stroke-width="1.5" opacity="0.45"/><line x1="312.4" y1="108.1" x2="318.4" y2="108.1" stroke="#0ecb81" stroke-width="1.5" opacity="0.45"/><line x1="350.4" y1="94.9" x2="350.4" y2="73.9" stroke="#0ecb81" stroke-width="1.5" opacity="0.45"/><line x1="347.4" y1="73.9" x2="353.4" y2="73.9" stroke="#0ecb81" stroke-width="1.5" opacity="0.45"/><line x1="347.4" y1="94.9" x2="353.4" y2="94.9" stroke="#0ecb81" stroke-width="1.5" opacity="0.45"/><line x1="385.5" y1="111.1" x2="385.5" y2="99.6" stroke="#0ecb81" stroke-width="1.5" opacity="0.45"/><line x1="382.5" y1="99.6" x2="388.5" y2="99.6" stroke="#0ecb81" stroke-width="1.5" opacity="0.45"/><line x1="382.5" y1="111.1" x2="388.5" y2="111.1" stroke="#0ecb81" stroke-width="1.5" opacity="0.45"/><line x1="420.5" y1="172.0" x2="420.5" y2="153.3" stroke="#0ecb81" stroke-width="1.5" opacity="0.45"/><line x1="417.5" y1="153.3" x2="423.5" y2="153.3" stroke="#0ecb81" stroke-width="1.5" opacity="0.45"/><line x1="417.5" y1="172.0" x2="423.5" y2="172.0" stroke="#0ecb81" stroke-width="1.5" opacity="0.45"/><line x1="455.6" y1="204.5" x2="455.6" y2="192.6" stroke="#0ecb81" stroke-width="1.5" opacity="0.45"/><line x1="452.6" y1="192.6" x2="458.6" y2="192.6" stroke="#0ecb81" stroke-width="1.5" opacity="0.45"/><line x1="452.6" y1="204.5" x2="458.6" y2="204.5" stroke="#0ecb81" stroke-width="1.5" opacity="0.45"/><line x1="490.6" y1="220.6" x2="490.6" y2="208.4" stroke="#0ecb81" stroke-width="1.5" opacity="0.45"/><line x1="487.6" y1="208.4" x2="493.6" y2="208.4" stroke="#0ecb81" stroke-width="1.5" opacity="0.45"/><line x1="487.6" y1="220.6" x2="493.6" y2="220.6" stroke="#0ecb81" stroke-width="1.5" opacity="0.45"/><line x1="525.7" y1="220.4" x2="525.7" y2="217.6" stroke="#0ecb81" stroke-width="1.5" opacity="0.45"/><line x1="522.7" y1="217.6" x2="528.7" y2="217.6" stroke="#0ecb81" stroke-width="1.5" opacity="0.45"/><line x1="522.7" y1="220.4" x2="528.7" y2="220.4" stroke="#0ecb81" stroke-width="1.5" opacity="0.45"/><line x1="560.7" y1="254.3" x2="560.7" y2="232.6" stroke="#0ecb81" stroke-width="1.5" opacity="0.45"/><line x1="557.7" y1="232.6" x2="563.7" y2="232.6" stroke="#0ecb81" stroke-width="1.5" opacity="0.45"/><line x1="557.7" y1="254.3" x2="563.7" y2="254.3" stroke="#0ecb81" stroke-width="1.5" opacity="0.45"/><line x1="595.8" y1="228.2" x2="595.8" y2="224.7" stroke="#0ecb81" stroke-width="1.5" opacity="0.45"/><line x1="592.8" y1="224.7" x2="598.8" y2="224.7" stroke="#0ecb81" stroke-width="1.5" opacity="0.45"/><line x1="592.8" y1="228.2" x2="598.8" y2="228.2" stroke="#0ecb81" stroke-width="1.5" opacity="0.45"/><line x1="630.8" y1="254.7" x2="630.8" y2="248.0" stroke="#0ecb81" stroke-width="1.5" opacity="0.45"/><line x1="627.8" y1="248.0" x2="633.8" y2="248.0" stroke="#0ecb81" stroke-width="1.5" opacity="0.45"/><line x1="627.8" y1="254.7" x2="633.8" y2="254.7" stroke="#0ecb81" stroke-width="1.5" opacity="0.45"/><line x1="665.9" y1="253.4" x2="665.9" y2="247.4" stroke="#0ecb81" stroke-width="1.5" opacity="0.45"/><line x1="662.9" y1="247.4" x2="668.9" y2="247.4" stroke="#0ecb81" stroke-width="1.5" opacity="0.45"/><line x1="662.9" y1="253.4" x2="668.9" y2="253.4" stroke="#0ecb81" stroke-width="1.5" opacity="0.45"/><line x1="700.9" y1="260.2" x2="700.9" y2="253.5" stroke="#0ecb81" stroke-width="1.5" opacity="0.45"/><line x1="697.9" y1="253.5" x2="703.9" y2="253.5" stroke="#0ecb81" stroke-width="1.5" opacity="0.45"/><line x1="697.9" y1="260.2" x2="703.9" y2="260.2" stroke="#0ecb81" stroke-width="1.5" opacity="0.45"/><line x1="736.0" y1="267.7" x2="736.0" y2="266.0" stroke="#0ecb81" stroke-width="1.5" opacity="0.45"/><line x1="733.0" y1="266.0" x2="739.0" y2="266.0" stroke="#0ecb81" stroke-width="1.5" opacity="0.45"/><line x1="733.0" y1="267.7" x2="739.0" y2="267.7" stroke="#0ecb81" stroke-width="1.5" opacity="0.45"/><polyline points="70.0,79.4 105.1,79.4 140.1,81.4 175.2,82.4 210.2,80.4 245.3,80.4 280.3,82.4 315.4,93.4 350.4,84.4 385.5,105.3 420.5,162.7 455.6,198.5 490.6,214.5 525.7,219.0 560.7,243.4 595.8,226.5 630.8,251.4 665.9,250.4 700.9,256.9 736.0,266.8" fill="none" stroke="#0ecb81" stroke-width="2.5"/><circle cx="70.0" cy="79.4" r="3.5" fill="#0ecb81"/><circle cx="105.1" cy="79.4" r="3.5" fill="#0ecb81"/><circle cx="140.1" cy="81.4" r="3.5" fill="#0ecb81"/><circle cx="175.2" cy="82.4" r="3.5" fill="#0ecb81"/><circle cx="210.2" cy="80.4" r="3.5" fill="#0ecb81"/><circle cx="245.3" cy="80.4" r="3.5" fill="#0ecb81"/><circle cx="280.3" cy="82.4" r="3.5" fill="#0ecb81"/><circle cx="315.4" cy="93.4" r="3.5" fill="#0ecb81"/><circle cx="350.4" cy="84.4" r="3.5" fill="#0ecb81"/><circle cx="385.5" cy="105.3" r="3.5" fill="#0ecb81"/><circle cx="420.5" cy="162.7" r="3.5" fill="#0ecb81"/><circle cx="455.6" cy="198.5" r="3.5" fill="#0ecb81"/><circle cx="490.6" cy="214.5" r="3.5" fill="#0ecb81"/><circle cx="525.7" cy="219.0" r="3.5" fill="#0ecb81"/><circle cx="560.7" cy="243.4" r="3.5" fill="#0ecb81"/><circle cx="595.8" cy="226.5" r="3.5" fill="#0ecb81"/><circle cx="630.8" cy="251.4" r="3.5" fill="#0ecb81"/><circle cx="665.9" cy="250.4" r="3.5" fill="#0ecb81"/><circle cx="700.9" cy="256.9" r="3.5" fill="#0ecb81"/><circle cx="736.0" cy="266.8" r="3.5" fill="#0ecb81"/>
<rect x="586" y="51" width="12" height="12" rx="2" fill="#f6465d"/><text x="604" y="61" fill="#eaecef" font-size="12" font-family="system-ui,sans-serif">Baseline</text>
<rect x="586" y="71" width="12" height="12" rx="2" fill="#0ecb81"/><text x="604" y="81" fill="#eaecef" font-size="12" font-family="system-ui,sans-serif">Boost</text>
</svg>
