<svg xmlns="http://www.w3.org/2000/svg" width="760" height="440" viewBox="0 0 760 440">
<rect x="0" y="0" width="760" height="440" fill="#ffffff"/>
<text x="70" y="30" fill="#1b1f24" font-size="18" font-weight="700" font-family="system-ui,sans-serif">FPS @ load • iOS • iPhone 17 Pro • Release</text>
<line x1="70" y1="376" x2="736" y2="376" stroke="#e3e6ea" stroke-width="1"/>
<text x="60" y="380" fill="#7a828c" font-size="12" text-anchor="end" font-family="system-ui,sans-serif">0</text>
<line x1="70" y1="311.2" x2="736" y2="311.2" stroke="#e3e6ea" stroke-width="1"/>
<text x="60" y="315.2" fill="#7a828c" font-size="12" text-anchor="end" font-family="system-ui,sans-serif">13</text>
<line x1="70" y1="246.4" x2="736" y2="246.4" stroke="#e3e6ea" stroke-width="1"/>
<text x="60" y="250.4" fill="#7a828c" font-size="12" text-anchor="end" font-family="system-ui,sans-serif">26</text>
<line x1="70" y1="181.6" x2="736" y2="181.6" stroke="#e3e6ea" stroke-width="1"/>
<text x="60" y="185.6" fill="#7a828c" font-size="12" text-anchor="end" font-family="system-ui,sans-serif">39</text>
<line x1="70" y1="116.80000000000001" x2="736" y2="116.80000000000001" stroke="#e3e6ea" stroke-width="1"/>
<text x="60" y="120.80000000000001" fill="#7a828c" font-size="12" text-anchor="end" font-family="system-ui,sans-serif">52</text>
<line x1="70" y1="52" x2="736" y2="52" stroke="#e3e6ea" stroke-width="1"/>
<text x="60" y="56" fill="#7a828c" font-size="12" text-anchor="end" font-family="system-ui,sans-serif">65</text>
<text x="70" y="398" fill="#7a828c" font-size="12" text-anchor="middle" font-family="system-ui,sans-serif">68</text>
<text x="105.05263157894737" y="398" fill="#7a828c" font-size="12" text-anchor="middle" font-family="system-ui,sans-serif">96</text>
<text x="140.10526315789474" y="398" fill="#7a828c" font-size="12" text-anchor="middle" font-family="system-ui,sans-serif">124</text>
<text x="175.15789473684208" y="398" fill="#7a828c" font-size="12" text-anchor="middle" font-family="system-ui,sans-serif">152</text>
<text x="210.21052631578948" y="398" fill="#7a828c" font-size="12" text-anchor="middle" font-family="system-ui,sans-serif">180</text>
<text x="245.26315789473682" y="398" fill="#7a828c" font-size="12" text-anchor="middle" font-family="system-ui,sans-serif">208</text>
<text x="280.31578947368416" y="398" fill="#7a828c" font-size="12" text-anchor="middle" font-family="system-ui,sans-serif">236</text>
<text x="315.36842105263156" y="398" fill="#7a828c" font-size="12" text-anchor="middle" font-family="system-ui,sans-serif">264</text>
<text x="350.42105263157896" y="398" fill="#7a828c" font-size="12" text-anchor="middle" font-family="system-ui,sans-serif">292</text>
<text x="385.4736842105263" y="398" fill="#7a828c" font-size="12" text-anchor="middle" font-family="system-ui,sans-serif">320</text>
<text x="420.52631578947364" y="398" fill="#7a828c" font-size="12" text-anchor="middle" font-family="system-ui,sans-serif">348</text>
<text x="455.57894736842104" y="398" fill="#7a828c" font-size="12" text-anchor="middle" font-family="system-ui,sans-serif">376</text>
<text x="490.6315789473684" y="398" fill="#7a828c" font-size="12" text-anchor="middle" font-family="system-ui,sans-serif">404</text>
<text x="525.6842105263158" y="398" fill="#7a828c" font-size="12" text-anchor="middle" font-family="system-ui,sans-serif">432</text>
<text x="560.7368421052631" y="398" fill="#7a828c" font-size="12" text-anchor="middle" font-family="system-ui,sans-serif">460</text>
<text x="595.7894736842105" y="398" fill="#7a828c" font-size="12" text-anchor="middle" font-family="system-ui,sans-serif">488</text>
<text x="630.8421052631579" y="398" fill="#7a828c" font-size="12" text-anchor="middle" font-family="system-ui,sans-serif">516</text>
<text x="665.8947368421053" y="398" fill="#7a828c" font-size="12" text-anchor="middle" font-family="system-ui,sans-serif">544</text>
<text x="700.9473684210526" y="398" fill="#7a828c" font-size="12" text-anchor="middle" font-family="system-ui,sans-serif">572</text>
<text x="736" y="398" fill="#7a828c" font-size="12" text-anchor="middle" font-family="system-ui,sans-serif">600</text>
<text x="403" y="424" fill="#5c6470" font-size="13" text-anchor="middle" font-family="system-ui,sans-serif">Text rows rendered</text>
<text x="18" y="214" fill="#5c6470" font-size="13" text-anchor="middle" font-family="system-ui,sans-serif" transform="rotate(-90 18 214)">avg FPS</text>
<line x1="70.0" y1="76.9" x2="70.0" y2="76.9" stroke="#f6465d" stroke-width="1.5" opacity="0.45"/><line x1="67.0" y1="76.9" x2="73.0" y2="76.9" stroke="#f6465d" stroke-width="1.5" opacity="0.45"/><line x1="67.0" y1="76.9" x2="73.0" y2="76.9" stroke="#f6465d" stroke-width="1.5" opacity="0.45"/><line x1="105.1" y1="76.9" x2="105.1" y2="76.9" stroke="#f6465d" stroke-width="1.5" opacity="0.45"/><line x1="102.1" y1="76.9" x2="108.1" y2="76.9" stroke="#f6465d" stroke-width="1.5" opacity="0.45"/><line x1="102.1" y1="76.9" x2="108.1" y2="76.9" stroke="#f6465d" stroke-width="1.5" opacity="0.45"/><line x1="140.1" y1="76.9" x2="140.1" y2="76.9" stroke="#f6465d" stroke-width="1.5" opacity="0.45"/><line x1="137.1" y1="76.9" x2="143.1" y2="76.9" stroke="#f6465d" stroke-width="1.5" opacity="0.45"/><line x1="137.1" y1="76.9" x2="143.1" y2="76.9" stroke="#f6465d" stroke-width="1.5" opacity="0.45"/><line x1="175.2" y1="76.9" x2="175.2" y2="76.9" stroke="#f6465d" stroke-width="1.5" opacity="0.45"/><line x1="172.2" y1="76.9" x2="178.2" y2="76.9" stroke="#f6465d" stroke-width="1.5" opacity="0.45"/><line x1="172.2" y1="76.9" x2="178.2" y2="76.9" stroke="#f6465d" stroke-width="1.5" opacity="0.45"/><line x1="210.2" y1="76.9" x2="210.2" y2="76.9" stroke="#f6465d" stroke-width="1.5" opacity="0.45"/><line x1="207.2" y1="76.9" x2="213.2" y2="76.9" stroke="#f6465d" stroke-width="1.5" opacity="0.45"/><line x1="207.2" y1="76.9" x2="213.2" y2="76.9" stroke="#f6465d" stroke-width="1.5" opacity="0.45"/><line x1="245.3" y1="76.9" x2="245.3" y2="76.9" stroke="#f6465d" stroke-width="1.5" opacity="0.45"/><line x1="242.3" y1="76.9" x2="248.3" y2="76.9" stroke="#f6465d" stroke-width="1.5" opacity="0.45"/><line x1="242.3" y1="76.9" x2="248.3" y2="76.9" stroke="#f6465d" stroke-width="1.5" opacity="0.45"/><line x1="280.3" y1="76.9" x2="280.3" y2="76.9" stroke="#f6465d" stroke-width="1.5" opacity="0.45"/><line x1="277.3" y1="76.9" x2="283.3" y2="76.9" stroke="#f6465d" stroke-width="1.5" opacity="0.45"/><line x1="277.3" y1="76.9" x2="283.3" y2="76.9" stroke="#f6465d" stroke-width="1.5" opacity="0.45"/><line x1="315.4" y1="76.9" x2="315.4" y2="76.9" stroke="#f6465d" stroke-width="1.5" opacity="0.45"/><line x1="312.4" y1="76.9" x2="318.4" y2="76.9" stroke="#f6465d" stroke-width="1.5" opacity="0.45"/><line x1="312.4" y1="76.9" x2="318.4" y2="76.9" stroke="#f6465d" stroke-width="1.5" opacity="0.45"/><line x1="350.4" y1="76.9" x2="350.4" y2="76.9" stroke="#f6465d" stroke-width="1.5" opacity="0.45"/><line x1="347.4" y1="76.9" x2="353.4" y2="76.9" stroke="#f6465d" stroke-width="1.5" opacity="0.45"/><line x1="347.4" y1="76.9" x2="353.4" y2="76.9" stroke="#f6465d" stroke-width="1.5" opacity="0.45"/><line x1="385.5" y1="76.9" x2="385.5" y2="76.9" stroke="#f6465d" stroke-width="1.5" opacity="0.45"/><line x1="382.5" y1="76.9" x2="388.5" y2="76.9" stroke="#f6465d" stroke-width="1.5" opacity="0.45"/><line x1="382.5" y1="76.9" x2="388.5" y2="76.9" stroke="#f6465d" stroke-width="1.5" opacity="0.45"/><line x1="420.5" y1="76.9" x2="420.5" y2="76.9" stroke="#f6465d" stroke-width="1.5" opacity="0.45"/><line x1="417.5" y1="76.9" x2="423.5" y2="76.9" stroke="#f6465d" stroke-width="1.5" opacity="0.45"/><line x1="417.5" y1="76.9" x2="423.5" y2="76.9" stroke="#f6465d" stroke-width="1.5" opacity="0.45"/><line x1="455.6" y1="105.5" x2="455.6" y2="93.2" stroke="#f6465d" stroke-width="1.5" opacity="0.45"/><line x1="452.6" y1="93.2" x2="458.6" y2="93.2" stroke="#f6465d" stroke-width="1.5" opacity="0.45"/><line x1="452.6" y1="105.5" x2="458.6" y2="105.5" stroke="#f6465d" stroke-width="1.5" opacity="0.45"/><line x1="490.6" y1="137.0" x2="490.6" y2="127.5" stroke="#f6465d" stroke-width="1.5" opacity="0.45"/><line x1="487.6" y1="127.5" x2="493.6" y2="127.5" stroke="#f6465d" stroke-width="1.5" opacity="0.45"/><line x1="487.6" y1="137.0" x2="493.6" y2="137.0" stroke="#f6465d" stroke-width="1.5" opacity="0.45"/><line x1="525.7" y1="150.1" x2="525.7" y2="141.3" stroke="#f6465d" stroke-width="1.5" opacity="0.45"/><line x1="522.7" y1="141.3" x2="528.7" y2="141.3" stroke="#f6465d" stroke-width="1.5" opacity="0.45"/><line x1="522.7" y1="150.1" x2="528.7" y2="150.1" stroke="#f6465d" stroke-width="1.5" opacity="0.45"/><line x1="560.7" y1="163.5" x2="560.7" y2="156.8" stroke="#f6465d" stroke-width="1.5" opacity="0.45"/><line x1="557.7" y1="156.8" x2="563.7" y2="156.8" stroke="#f6465d" stroke-width="1.5" opacity="0.45"/><line x1="557.7" y1="163.5" x2="563.7" y2="163.5" stroke="#f6465d" stroke-width="1.5" opacity="0.45"/><line x1="595.8" y1="177.6" x2="595.8" y2="175.6" stroke="#f6465d" stroke-width="1.5" opacity="0.45"/><line x1="592.8" y1="175.6" x2="598.8" y2="175.6" stroke="#f6465d" stroke-width="1.5" opacity="0.45"/><line x1="592.8" y1="177.6" x2="598.8" y2="177.6" stroke="#f6465d" stroke-width="1.5" opacity="0.45"/><line x1="630.8" y1="189.5" x2="630.8" y2="187.7" stroke="#f6465d" stroke-width="1.5" opacity="0.45"/><line x1="627.8" y1="187.7" x2="633.8" y2="187.7" stroke="#f6465d" stroke-width="1.5" opacity="0.45"/><line x1="627.8" y1="189.5" x2="633.8" y2="189.5" stroke="#f6465d" stroke-width="1.5" opacity="0.45"/><line x1="665.9" y1="196.9" x2="665.9" y2="195.2" stroke="#f6465d" stroke-width="1.5" opacity="0.45"/><line x1="662.9" y1="195.2" x2="668.9" y2="195.2" stroke="#f6465d" stroke-width="1.5" opacity="0.45"/><line x1="662.9" y1="196.9" x2="668.9" y2="196.9" stroke="#f6465d" stroke-width="1.5" opacity="0.45"/><line x1="700.9" y1="206.5" x2="700.9" y2="205.5" stroke="#f6465d" stroke-width="1.5" opacity="0.45"/><line x1="697.9" y1="205.5" x2="703.9" y2="205.5" stroke="#f6465d" stroke-width="1.5" opacity="0.45"/><line x1="697.9" y1="206.5" x2="703.9" y2="206.5" stroke="#f6465d" stroke-width="1.5" opacity="0.45"/><line x1="736.0" y1="217.9" x2="736.0" y2="215.1" stroke="#f6465d" stroke-width="1.5" opacity="0.45"/><line x1="733.0" y1="215.1" x2="739.0" y2="215.1" stroke="#f6465d" stroke-width="1.5" opacity="0.45"/><line x1="733.0" y1="217.9" x2="739.0" y2="217.9" stroke="#f6465d" stroke-width="1.5" opacity="0.45"/><polyline points="70.0,76.9 105.1,76.9 140.1,76.9 175.2,76.9 210.2,76.9 245.3,76.9 280.3,76.9 315.4,76.9 350.4,76.9 385.5,76.9 420.5,76.9 455.6,99.4 490.6,132.3 525.7,145.7 560.7,160.2 595.8,176.6 630.8,188.6 665.9,196.1 700.9,206.0 736.0,216.5" fill="none" stroke="#f6465d" stroke-width="2.5"/><circle cx="70.0" cy="76.9" r="3.5" fill="#f6465d"/><circle cx="105.1" cy="76.9" r="3.5" fill="#f6465d"/><circle cx="140.1" cy="76.9" r="3.5" fill="#f6465d"/><circle cx="175.2" cy="76.9" r="3.5" fill="#f6465d"/><circle cx="210.2" cy="76.9" r="3.5" fill="#f6465d"/><circle cx="245.3" cy="76.9" r="3.5" fill="#f6465d"/><circle cx="280.3" cy="76.9" r="3.5" fill="#f6465d"/><circle cx="315.4" cy="76.9" r="3.5" fill="#f6465d"/><circle cx="350.4" cy="76.9" r="3.5" fill="#f6465d"/><circle cx="385.5" cy="76.9" r="3.5" fill="#f6465d"/><circle cx="420.5" cy="76.9" r="3.5" fill="#f6465d"/><circle cx="455.6" cy="99.4" r="3.5" fill="#f6465d"/><circle cx="490.6" cy="132.3" r="3.5" fill="#f6465d"/><circle cx="525.7" cy="145.7" r="3.5" fill="#f6465d"/><circle cx="560.7" cy="160.2" r="3.5" fill="#f6465d"/><circle cx="595.8" cy="176.6" r="3.5" fill="#f6465d"/><circle cx="630.8" cy="188.6" r="3.5" fill="#f6465d"/><circle cx="665.9" cy="196.1" r="3.5" fill="#f6465d"/><circle cx="700.9" cy="206.0" r="3.5" fill="#f6465d"/><circle cx="736.0" cy="216.5" r="3.5" fill="#f6465d"/>
<line x1="70.0" y1="76.9" x2="70.0" y2="76.9" stroke="#f0b90b" stroke-width="1.5" opacity="0.45"/><line x1="67.0" y1="76.9" x2="73.0" y2="76.9" stroke="#f0b90b" stroke-width="1.5" opacity="0.45"/><line x1="67.0" y1="76.9" x2="73.0" y2="76.9" stroke="#f0b90b" stroke-width="1.5" opacity="0.45"/><line x1="105.1" y1="76.9" x2="105.1" y2="76.9" stroke="#f0b90b" stroke-width="1.5" opacity="0.45"/><line x1="102.1" y1="76.9" x2="108.1" y2="76.9" stroke="#f0b90b" stroke-width="1.5" opacity="0.45"/><line x1="102.1" y1="76.9" x2="108.1" y2="76.9" stroke="#f0b90b" stroke-width="1.5" opacity="0.45"/><line x1="140.1" y1="76.9" x2="140.1" y2="76.9" stroke="#f0b90b" stroke-width="1.5" opacity="0.45"/><line x1="137.1" y1="76.9" x2="143.1" y2="76.9" stroke="#f0b90b" stroke-width="1.5" opacity="0.45"/><line x1="137.1" y1="76.9" x2="143.1" y2="76.9" stroke="#f0b90b" stroke-width="1.5" opacity="0.45"/><line x1="175.2" y1="76.9" x2="175.2" y2="76.9" stroke="#f0b90b" stroke-width="1.5" opacity="0.45"/><line x1="172.2" y1="76.9" x2="178.2" y2="76.9" stroke="#f0b90b" stroke-width="1.5" opacity="0.45"/><line x1="172.2" y1="76.9" x2="178.2" y2="76.9" stroke="#f0b90b" stroke-width="1.5" opacity="0.45"/><line x1="210.2" y1="76.9" x2="210.2" y2="76.9" stroke="#f0b90b" stroke-width="1.5" opacity="0.45"/><line x1="207.2" y1="76.9" x2="213.2" y2="76.9" stroke="#f0b90b" stroke-width="1.5" opacity="0.45"/><line x1="207.2" y1="76.9" x2="213.2" y2="76.9" stroke="#f0b90b" stroke-width="1.5" opacity="0.45"/><line x1="245.3" y1="76.9" x2="245.3" y2="76.9" stroke="#f0b90b" stroke-width="1.5" opacity="0.45"/><line x1="242.3" y1="76.9" x2="248.3" y2="76.9" stroke="#f0b90b" stroke-width="1.5" opacity="0.45"/><line x1="242.3" y1="76.9" x2="248.3" y2="76.9" stroke="#f0b90b" stroke-width="1.5" opacity="0.45"/><line x1="280.3" y1="76.9" x2="280.3" y2="76.9" stroke="#f0b90b" stroke-width="1.5" opacity="0.45"/><line x1="277.3" y1="76.9" x2="283.3" y2="76.9" stroke="#f0b90b" stroke-width="1.5" opacity="0.45"/><line x1="277.3" y1="76.9" x2="283.3" y2="76.9" stroke="#f0b90b" stroke-width="1.5" opacity="0.45"/><line x1="315.4" y1="76.9" x2="315.4" y2="76.9" stroke="#f0b90b" stroke-width="1.5" opacity="0.45"/><line x1="312.4" y1="76.9" x2="318.4" y2="76.9" stroke="#f0b90b" stroke-width="1.5" opacity="0.45"/><line x1="312.4" y1="76.9" x2="318.4" y2="76.9" stroke="#f0b90b" stroke-width="1.5" opacity="0.45"/><line x1="350.4" y1="76.9" x2="350.4" y2="76.9" stroke="#f0b90b" stroke-width="1.5" opacity="0.45"/><line x1="347.4" y1="76.9" x2="353.4" y2="76.9" stroke="#f0b90b" stroke-width="1.5" opacity="0.45"/><line x1="347.4" y1="76.9" x2="353.4" y2="76.9" stroke="#f0b90b" stroke-width="1.5" opacity="0.45"/><line x1="385.5" y1="76.9" x2="385.5" y2="76.9" stroke="#f0b90b" stroke-width="1.5" opacity="0.45"/><line x1="382.5" y1="76.9" x2="388.5" y2="76.9" stroke="#f0b90b" stroke-width="1.5" opacity="0.45"/><line x1="382.5" y1="76.9" x2="388.5" y2="76.9" stroke="#f0b90b" stroke-width="1.5" opacity="0.45"/><line x1="420.5" y1="76.9" x2="420.5" y2="76.9" stroke="#f0b90b" stroke-width="1.5" opacity="0.45"/><line x1="417.5" y1="76.9" x2="423.5" y2="76.9" stroke="#f0b90b" stroke-width="1.5" opacity="0.45"/><line x1="417.5" y1="76.9" x2="423.5" y2="76.9" stroke="#f0b90b" stroke-width="1.5" opacity="0.45"/><line x1="455.6" y1="76.9" x2="455.6" y2="76.9" stroke="#f0b90b" stroke-width="1.5" opacity="0.45"/><line x1="452.6" y1="76.9" x2="458.6" y2="76.9" stroke="#f0b90b" stroke-width="1.5" opacity="0.45"/><line x1="452.6" y1="76.9" x2="458.6" y2="76.9" stroke="#f0b90b" stroke-width="1.5" opacity="0.45"/><line x1="490.6" y1="97.0" x2="490.6" y2="91.8" stroke="#f0b90b" stroke-width="1.5" opacity="0.45"/><line x1="487.6" y1="91.8" x2="493.6" y2="91.8" stroke="#f0b90b" stroke-width="1.5" opacity="0.45"/><line x1="487.6" y1="97.0" x2="493.6" y2="97.0" stroke="#f0b90b" stroke-width="1.5" opacity="0.45"/><line x1="525.7" y1="118.0" x2="525.7" y2="114.6" stroke="#f0b90b" stroke-width="1.5" opacity="0.45"/><line x1="522.7" y1="114.6" x2="528.7" y2="114.6" stroke="#f0b90b" stroke-width="1.5" opacity="0.45"/><line x1="522.7" y1="118.0" x2="528.7" y2="118.0" stroke="#f0b90b" stroke-width="1.5" opacity="0.45"/><line x1="560.7" y1="147.8" x2="560.7" y2="136.6" stroke="#f0b90b" stroke-width="1.5" opacity="0.45"/><line x1="557.7" y1="136.6" x2="563.7" y2="136.6" stroke="#f0b90b" stroke-width="1.5" opacity="0.45"/><line x1="557.7" y1="147.8" x2="563.7" y2="147.8" stroke="#f0b90b" stroke-width="1.5" opacity="0.45"/><line x1="595.8" y1="162.9" x2="595.8" y2="157.4" stroke="#f0b90b" stroke-width="1.5" opacity="0.45"/><line x1="592.8" y1="157.4" x2="598.8" y2="157.4" stroke="#f0b90b" stroke-width="1.5" opacity="0.45"/><line x1="592.8" y1="162.9" x2="598.8" y2="162.9" stroke="#f0b90b" stroke-width="1.5" opacity="0.45"/><line x1="630.8" y1="174.7" x2="630.8" y2="173.5" stroke="#f0b90b" stroke-width="1.5" opacity="0.45"/><line x1="627.8" y1="173.5" x2="633.8" y2="173.5" stroke="#f0b90b" stroke-width="1.5" opacity="0.45"/><line x1="627.8" y1="174.7" x2="633.8" y2="174.7" stroke="#f0b90b" stroke-width="1.5" opacity="0.45"/><line x1="665.9" y1="178.6" x2="665.9" y2="176.6" stroke="#f0b90b" stroke-width="1.5" opacity="0.45"/><line x1="662.9" y1="176.6" x2="668.9" y2="176.6" stroke="#f0b90b" stroke-width="1.5" opacity="0.45"/><line x1="662.9" y1="178.6" x2="668.9" y2="178.6" stroke="#f0b90b" stroke-width="1.5" opacity="0.45"/><line x1="700.9" y1="189.6" x2="700.9" y2="188.6" stroke="#f0b90b" stroke-width="1.5" opacity="0.45"/><line x1="697.9" y1="188.6" x2="703.9" y2="188.6" stroke="#f0b90b" stroke-width="1.5" opacity="0.45"/><line x1="697.9" y1="189.6" x2="703.9" y2="189.6" stroke="#f0b90b" stroke-width="1.5" opacity="0.45"/><line x1="736.0" y1="198.4" x2="736.0" y2="197.7" stroke="#f0b90b" stroke-width="1.5" opacity="0.45"/><line x1="733.0" y1="197.7" x2="739.0" y2="197.7" stroke="#f0b90b" stroke-width="1.5" opacity="0.45"/><line x1="733.0" y1="198.4" x2="739.0" y2="198.4" stroke="#f0b90b" stroke-width="1.5" opacity="0.45"/><polyline points="70.0,76.9 105.1,76.9 140.1,76.9 175.2,76.9 210.2,76.9 245.3,76.9 280.3,76.9 315.4,76.9 350.4,76.9 385.5,76.9 420.5,76.9 455.6,76.9 490.6,94.4 525.7,116.3 560.7,142.2 595.8,160.2 630.8,174.1 665.9,177.6 700.9,189.1 736.0,198.0" fill="none" stroke="#f0b90b" stroke-width="2.5"/><circle cx="70.0" cy="76.9" r="3.5" fill="#f0b90b"/><circle cx="105.1" cy="76.9" r="3.5" fill="#f0b90b"/><circle cx="140.1" cy="76.9" r="3.5" fill="#f0b90b"/><circle cx="175.2" cy="76.9" r="3.5" fill="#f0b90b"/><circle cx="210.2" cy="76.9" r="3.5" fill="#f0b90b"/><circle cx="245.3" cy="76.9" r="3.5" fill="#f0b90b"/><circle cx="280.3" cy="76.9" r="3.5" fill="#f0b90b"/><circle cx="315.4" cy="76.9" r="3.5" fill="#f0b90b"/><circle cx="350.4" cy="76.9" r="3.5" fill="#f0b90b"/><circle cx="385.5" cy="76.9" r="3.5" fill="#f0b90b"/><circle cx="420.5" cy="76.9" r="3.5" fill="#f0b90b"/><circle cx="455.6" cy="76.9" r="3.5" fill="#f0b90b"/><circle cx="490.6" cy="94.4" r="3.5" fill="#f0b90b"/><circle cx="525.7" cy="116.3" r="3.5" fill="#f0b90b"/><circle cx="560.7" cy="142.2" r="3.5" fill="#f0b90b"/><circle cx="595.8" cy="160.2" r="3.5" fill="#f0b90b"/><circle cx="630.8" cy="174.1" r="3.5" fill="#f0b90b"/><circle cx="665.9" cy="177.6" r="3.5" fill="#f0b90b"/><circle cx="700.9" cy="189.1" r="3.5" fill="#f0b90b"/><circle cx="736.0" cy="198.0" r="3.5" fill="#f0b90b"/>
<line x1="70.0" y1="76.9" x2="70.0" y2="76.9" stroke="#0ecb81" stroke-width="1.5" opacity="0.45"/><line x1="67.0" y1="76.9" x2="73.0" y2="76.9" stroke="#0ecb81" stroke-width="1.5" opacity="0.45"/><line x1="67.0" y1="76.9" x2="73.0" y2="76.9" stroke="#0ecb81" stroke-width="1.5" opacity="0.45"/><line x1="105.1" y1="76.9" x2="105.1" y2="76.9" stroke="#0ecb81" stroke-width="1.5" opacity="0.45"/><line x1="102.1" y1="76.9" x2="108.1" y2="76.9" stroke="#0ecb81" stroke-width="1.5" opacity="0.45"/><line x1="102.1" y1="76.9" x2="108.1" y2="76.9" stroke="#0ecb81" stroke-width="1.5" opacity="0.45"/><line x1="140.1" y1="76.9" x2="140.1" y2="76.9" stroke="#0ecb81" stroke-width="1.5" opacity="0.45"/><line x1="137.1" y1="76.9" x2="143.1" y2="76.9" stroke="#0ecb81" stroke-width="1.5" opacity="0.45"/><line x1="137.1" y1="76.9" x2="143.1" y2="76.9" stroke="#0ecb81" stroke-width="1.5" opacity="0.45"/><line x1="175.2" y1="76.9" x2="175.2" y2="76.9" stroke="#0ecb81" stroke-width="1.5" opacity="0.45"/><line x1="172.2" y1="76.9" x2="178.2" y2="76.9" stroke="#0ecb81" stroke-width="1.5" opacity="0.45"/><line x1="172.2" y1="76.9" x2="178.2" y2="76.9" stroke="#0ecb81" stroke-width="1.5" opacity="0.45"/><line x1="210.2" y1="76.9" x2="210.2" y2="76.9" stroke="#0ecb81" stroke-width="1.5" opacity="0.45"/><line x1="207.2" y1="76.9" x2="213.2" y2="76.9" stroke="#0ecb81" stroke-width="1.5" opacity="0.45"/><line x1="207.2" y1="76.9" x2="213.2" y2="76.9" stroke="#0ecb81" stroke-width="1.5" opacity="0.45"/><line x1="245.3" y1="76.9" x2="245.3" y2="76.9" stroke="#0ecb81" stroke-width="1.5" opacity="0.45"/><line x1="242.3" y1="76.9" x2="248.3" y2="76.9" stroke="#0ecb81" stroke-width="1.5" opacity="0.45"/><line x1="242.3" y1="76.9" x2="248.3" y2="76.9" stroke="#0ecb81" stroke-width="1.5" opacity="0.45"/><line x1="280.3" y1="76.9" x2="280.3" y2="76.9" stroke="#0ecb81" stroke-width="1.5" opacity="0.45"/><line x1="277.3" y1="76.9" x2="283.3" y2="76.9" stroke="#0ecb81" stroke-width="1.5" opacity="0.45"/><line x1="277.3" y1="76.9" x2="283.3" y2="76.9" stroke="#0ecb81" stroke-width="1.5" opacity="0.45"/><line x1="315.4" y1="76.9" x2="315.4" y2="76.9" stroke="#0ecb81" stroke-width="1.5" opacity="0.45"/><line x1="312.4" y1="76.9" x2="318.4" y2="76.9" stroke="#0ecb81" stroke-width="1.5" opacity="0.45"/><line x1="312.4" y1="76.9" x2="318.4" y2="76.9" stroke="#0ecb81" stroke-width="1.5" opacity="0.45"/><line x1="350.4" y1="76.9" x2="350.4" y2="76.9" stroke="#0ecb81" stroke-width="1.5" opacity="0.45"/><line x1="347.4" y1="76.9" x2="353.4" y2="76.9" stroke="#0ecb81" stroke-width="1.5" opacity="0.45"/><line x1="347.4" y1="76.9" x2="353.4" y2="76.9" stroke="#0ecb81" stroke-width="1.5" opacity="0.45"/><line x1="385.5" y1="76.9" x2="385.5" y2="76.9" stroke="#0ecb81" stroke-width="1.5" opacity="0.45"/><line x1="382.5" y1="76.9" x2="388.5" y2="76.9" stroke="#0ecb81" stroke-width="1.5" opacity="0.45"/><line x1="382.5" y1="76.9" x2="388.5" y2="76.9" stroke="#0ecb81" stroke-width="1.5" opacity="0.45"/><line x1="420.5" y1="76.9" x2="420.5" y2="76.9" stroke="#0ecb81" stroke-width="1.5" opacity="0.45"/><line x1="417.5" y1="76.9" x2="423.5" y2="76.9" stroke="#0ecb81" stroke-width="1.5" opacity="0.45"/><line x1="417.5" y1="76.9" x2="423.5" y2="76.9" stroke="#0ecb81" stroke-width="1.5" opacity="0.45"/><line x1="455.6" y1="76.9" x2="455.6" y2="76.9" stroke="#0ecb81" stroke-width="1.5" opacity="0.45"/><line x1="452.6" y1="76.9" x2="458.6" y2="76.9" stroke="#0ecb81" stroke-width="1.5" opacity="0.45"/><line x1="452.6" y1="76.9" x2="458.6" y2="76.9" stroke="#0ecb81" stroke-width="1.5" opacity="0.45"/><line x1="490.6" y1="76.9" x2="490.6" y2="76.9" stroke="#0ecb81" stroke-width="1.5" opacity="0.45"/><line x1="487.6" y1="76.9" x2="493.6" y2="76.9" stroke="#0ecb81" stroke-width="1.5" opacity="0.45"/><line x1="487.6" y1="76.9" x2="493.6" y2="76.9" stroke="#0ecb81" stroke-width="1.5" opacity="0.45"/><line x1="525.7" y1="76.9" x2="525.7" y2="76.9" stroke="#0ecb81" stroke-width="1.5" opacity="0.45"/><line x1="522.7" y1="76.9" x2="528.7" y2="76.9" stroke="#0ecb81" stroke-width="1.5" opacity="0.45"/><line x1="522.7" y1="76.9" x2="528.7" y2="76.9" stroke="#0ecb81" stroke-width="1.5" opacity="0.45"/><line x1="560.7" y1="76.9" x2="560.7" y2="76.9" stroke="#0ecb81" stroke-width="1.5" opacity="0.45"/><line x1="557.7" y1="76.9" x2="563.7" y2="76.9" stroke="#0ecb81" stroke-width="1.5" opacity="0.45"/><line x1="557.7" y1="76.9" x2="563.7" y2="76.9" stroke="#0ecb81" stroke-width="1.5" opacity="0.45"/><line x1="595.8" y1="76.9" x2="595.8" y2="76.9" stroke="#0ecb81" stroke-width="1.5" opacity="0.45"/><line x1="592.8" y1="76.9" x2="598.8" y2="76.9" stroke="#0ecb81" stroke-width="1.5" opacity="0.45"/><line x1="592.8" y1="76.9" x2="598.8" y2="76.9" stroke="#0ecb81" stroke-width="1.5" opacity="0.45"/><line x1="630.8" y1="76.9" x2="630.8" y2="76.9" stroke="#0ecb81" stroke-width="1.5" opacity="0.45"/><line x1="627.8" y1="76.9" x2="633.8" y2="76.9" stroke="#0ecb81" stroke-width="1.5" opacity="0.45"/><line x1="627.8" y1="76.9" x2="633.8" y2="76.9" stroke="#0ecb81" stroke-width="1.5" opacity="0.45"/><line x1="665.9" y1="76.9" x2="665.9" y2="76.9" stroke="#0ecb81" stroke-width="1.5" opacity="0.45"/><line x1="662.9" y1="76.9" x2="668.9" y2="76.9" stroke="#0ecb81" stroke-width="1.5" opacity="0.45"/><line x1="662.9" y1="76.9" x2="668.9" y2="76.9" stroke="#0ecb81" stroke-width="1.5" opacity="0.45"/><line x1="700.9" y1="92.6" x2="700.9" y2="91.1" stroke="#0ecb81" stroke-width="1.5" opacity="0.45"/><line x1="697.9" y1="91.1" x2="703.9" y2="91.1" stroke="#0ecb81" stroke-width="1.5" opacity="0.45"/><line x1="697.9" y1="92.6" x2="703.9" y2="92.6" stroke="#0ecb81" stroke-width="1.5" opacity="0.45"/><line x1="736.0" y1="107.5" x2="736.0" y2="105.2" stroke="#0ecb81" stroke-width="1.5" opacity="0.45"/><line x1="733.0" y1="105.2" x2="739.0" y2="105.2" stroke="#0ecb81" stroke-width="1.5" opacity="0.45"/><line x1="733.0" y1="107.5" x2="739.0" y2="107.5" stroke="#0ecb81" stroke-width="1.5" opacity="0.45"/><polyline points="70.0,76.9 105.1,76.9 140.1,76.9 175.2,76.9 210.2,76.9 245.3,76.9 280.3,76.9 315.4,76.9 350.4,76.9 385.5,76.9 420.5,76.9 455.6,76.9 490.6,76.9 525.7,76.9 560.7,76.9 595.8,76.9 630.8,76.9 665.9,76.9 700.9,91.9 736.0,106.3" fill="none" stroke="#0ecb81" stroke-width="2.5"/><circle cx="70.0" cy="76.9" r="3.5" fill="#0ecb81"/><circle cx="105.1" cy="76.9" r="3.5" fill="#0ecb81"/><circle cx="140.1" cy="76.9" r="3.5" fill="#0ecb81"/><circle cx="175.2" cy="76.9" r="3.5" fill="#0ecb81"/><circle cx="210.2" cy="76.9" r="3.5" fill="#0ecb81"/><circle cx="245.3" cy="76.9" r="3.5" fill="#0ecb81"/><circle cx="280.3" cy="76.9" r="3.5" fill="#0ecb81"/><circle cx="315.4" cy="76.9" r="3.5" fill="#0ecb81"/><circle cx="350.4" cy="76.9" r="3.5" fill="#0ecb81"/><circle cx="385.5" cy="76.9" r="3.5" fill="#0ecb81"/><circle cx="420.5" cy="76.9" r="3.5" fill="#0ecb81"/><circle cx="455.6" cy="76.9" r="3.5" fill="#0ecb81"/><circle cx="490.6" cy="76.9" r="3.5" fill="#0ecb81"/><circle cx="525.7" cy="76.9" r="3.5" fill="#0ecb81"/><circle cx="560.7" cy="76.9" r="3.5" fill="#0ecb81"/><circle cx="595.8" cy="76.9" r="3.5" fill="#0ecb81"/><circle cx="630.8" cy="76.9" r="3.5" fill="#0ecb81"/><circle cx="665.9" cy="76.9" r="3.5" fill="#0ecb81"/><circle cx="700.9" cy="91.9" r="3.5" fill="#0ecb81"/><circle cx="736.0" cy="106.3" r="3.5" fill="#0ecb81"/>
<rect x="586" y="51" width="12" height="12" rx="2" fill="#f6465d"/><text x="604" y="61" fill="#1b1f24" font-size="12" font-family="system-ui,sans-serif">Baseline</text>
<rect x="586" y="71" width="12" height="12" rx="2" fill="#f0b90b"/><text x="604" y="81" fill="#1b1f24" font-size="12" font-family="system-ui,sans-serif">Core-optimized</text>
<rect x="586" y="91" width="12" height="12" rx="2" fill="#0ecb81"/><text x="604" y="101" fill="#1b1f24" font-size="12" font-family="system-ui,sans-serif">Boost</text>
</svg>
